<svg width="16" height="17" viewBox="0 0 16 17" fill="none" xmlns="http://www.w3.org/2000/svg">
<path id="Vector" fill-rule="evenodd" clip-rule="evenodd" d="M7.204 2.71998e-08C6.05313 0.000125727 4.91905 0.278346 3.89667 0.81137C2.87429 1.34439 1.99338 2.11671 1.32767 3.06367C0.661966 4.01063 0.230836 5.10467 0.0703747 6.25421C-0.0900864 7.40375 0.0247906 8.57534 0.405389 9.67091C0.785987 10.7665 1.42123 11.7541 2.25794 12.5512C3.09466 13.3483 4.10849 13.9315 5.21457 14.2522C6.32066 14.5729 7.4868 14.6216 8.61539 14.3943C9.74398 14.167 10.8022 13.6704 11.7014 12.9458L14.6433 15.9134C14.7943 16.0605 14.9965 16.1419 15.2064 16.14C15.4163 16.1382 15.6171 16.0533 15.7655 15.9036C15.914 15.7538 15.9981 15.5513 16 15.3396C16.0018 15.1279 15.9211 14.9239 15.7753 14.7716L12.8333 11.804C13.6803 10.7348 14.2107 9.44604 14.3635 8.08612C14.5164 6.72619 14.2854 5.35038 13.6972 4.11703C13.109 2.88369 12.1876 1.84294 11.0388 1.11459C9.8901 0.386234 8.56082 -0.000118361 7.204 2.71998e-08ZM2.40081 7.2675C2.40081 6.63124 2.52505 6.00122 2.76643 5.4134C3.00782 4.82557 3.36162 4.29146 3.80763 3.84156C4.25365 3.39167 4.78315 3.03479 5.3659 2.7913C5.94865 2.54782 6.57323 2.4225 7.204 2.4225C7.83476 2.4225 8.45935 2.54782 9.0421 2.7913C9.62485 3.03479 10.1543 3.39167 10.6004 3.84156C11.0464 4.29146 11.4002 4.82557 11.6416 5.4134C11.8829 6.00122 12.0072 6.63124 12.0072 7.2675C12.0072 8.55247 11.5011 9.78481 10.6004 10.6934C9.69959 11.602 8.47788 12.1125 7.204 12.1125C5.93011 12.1125 4.70841 11.602 3.80763 10.6934C2.90686 9.78481 2.40081 8.55247 2.40081 7.2675Z" fill="#565656"/>
</svg>
